<svg width="64" height="64" viewBox="0 0 64 64" fill="none" xmlns="http://www.w3.org/2000/svg">
  <rect width="64" height="64" rx="8" fill="#374151"/>
  <path d="M20 24C20 21.7909 21.7909 20 24 20H40C42.2091 20 44 21.7909 44 24V40C44 42.2091 42.2091 44 40 44H24C21.7909 44 20 42.2091 20 40V24Z" fill="#6B7280"/>
  <path d="M28 32C28 29.7909 29.7909 28 32 28C34.2091 28 36 29.7909 36 32C36 34.2091 34.2091 36 32 36C29.7909 36 28 34.2091 28 32Z" fill="#9CA3AF"/>
  <path d="M20 44L28 36L36 44H40L32 36L24 44H20Z" fill="#9CA3AF"/>
</svg>